<svg xmlns="http://www.w3.org/2000/svg" width="200" height="40" viewBox="0 0 200 40">
  <rect x="0" y="0" width="40" height="40" fill="#07111f"/>
  <path d="M0 0H40V40H0Z" fill="none" stroke="#1f4969" stroke-width="1"/>
  <circle cx="20" cy="20" r="1.8" fill="#376d96" opacity="0.7"/>
  <rect x="40" y="0" width="40" height="40" fill="#151c28"/>
  <path d="M45 30L52 10L62 17L75 32Z" fill="#5d6878"/>
  <path d="M40 0H80V40H40Z" fill="none" stroke="#2e3a4d" stroke-width="1"/>
  <rect x="80" y="0" width="40" height="40" fill="#062437"/>
  <path d="M80 0H120V40H80Z" fill="none" stroke="#1aa9d2" stroke-width="1.5"/>
  <path d="M86 12H114M88 22H112M92 31H108" stroke="#5bdcff" stroke-width="1" opacity="0.45"/>
  <rect x="120" y="0" width="40" height="40" fill="#30190d"/>
  <path d="M120 0H160V40H120Z" fill="none" stroke="#ff8a2a" stroke-width="1.5"/>
  <circle cx="140" cy="20" r="10" fill="none" stroke="#ffb158" stroke-width="1.2" opacity="0.7"/>
  <circle cx="140" cy="20" r="4" fill="#ff7a1f" opacity="0.55"/>
  <rect x="160" y="0" width="40" height="40" fill="#090508"/>
  <path d="M160 0H200V40H160Z" fill="none" stroke="#a41d27" stroke-width="1.5"/>
  <path d="M165 8L176 20L168 35M184 5L179 19L194 32" stroke="#e12a35" stroke-width="1.2" opacity="0.7"/>
</svg>
